<?xml version="1.0" encoding="UTF-8"?>
<svg width="283px" height="246px" viewBox="0 0 283 246" version="1.1" xmlns="http://www.w3.org/2000/svg" xmlns:xlink="http://www.w3.org/1999/xlink">
    <!-- Generator: Sketch 51.3 (57544) - http://www.bohemiancoding.com/sketch -->
    <title>Combined Shape</title>
    <desc>Created with Sketch.</desc>
    <defs>
        <linearGradient x1="39.6438337%" y1="100%" x2="39.6438337%" y2="0%" id="linearGradient-1">
            <stop stop-color="#E60087" offset="0%"></stop>
            <stop stop-color="#FEDB00" offset="100%"></stop>
        </linearGradient>
    </defs>
    <g id="normal" stroke="none" stroke-width="1" fill="none" fill-rule="evenodd">
        <path d="M243.746681,124 C260.6883,124 275.587077,133.804809 280.745404,148.263902 C281.4345,150.269548 282.083483,153.62949 282.38114,157.051718 C283.487654,170.201115 280.525358,184.284311 271.670108,198.254537 C265.281009,208.333587 254.315446,219.314327 241.405779,229.544596 C229.467871,239.004796 219.445875,245.386 214.303681,245.386 C210.843891,245.386 207.758542,243.790222 201.985149,240.101954 C197.619079,237.312739 192.452409,233.611456 187.314833,229.553498 C174.306437,219.278706 163.320625,208.324552 156.937139,198.254358 C148.087639,184.293201 145.135019,170.241123 146.195758,157.397811 C146.522766,153.639821 147.172976,150.270544 147.874816,148.26849 C153.020284,133.804809 167.919061,124 184.860681,124 C195.985022,124 206.323626,128.171998 213.507054,135.154508 C221.281727,128.250308 232.379466,124 243.746681,124 Z M184.860681,142 C175.406177,142 167.49828,147.140842 164.894025,154.09702 C164.836141,154.311464 164.769269,154.586996 164.6978,154.920323 C164.470543,155.980229 164.276601,157.244012 164.156469,158.617047 C164.134631,158.880417 164.134631,158.880417 164.133142,158.897781 C163.380702,168.008407 165.51488,178.165365 172.140108,188.617463 C177.222507,196.635143 186.916582,206.301282 198.471778,215.428252 C203.15199,219.124957 207.832222,222.477766 211.675618,224.933077 C212.666585,225.566146 213.569305,226.11802 214.352763,226.572684 C215.14285,226.118617 216.055024,225.564353 217.057923,224.925787 C220.881416,222.491293 225.548152,219.144379 230.226332,215.437154 C241.691989,206.35119 251.367904,196.661883 256.467139,188.617642 C263.097067,178.15813 265.237647,167.981496 264.471892,158.869047 C264.329956,157.242293 264.136294,155.978913 263.909237,154.919394 C263.837872,154.58638 263.771089,154.311107 263.713277,154.096862 C261.108961,147.140764 253.201113,142 243.746681,142 C232.45572,142 221.990374,148.950849 220.864592,155.985256 C220.079101,160.893362 215.46353,164.235401 210.555424,163.449911 C205.647319,162.664421 202.305279,158.048849 203.09077,153.140744 C203.196118,152.482475 203.32591,151.831035 203.479235,151.186898 C200.170455,145.787593 193.068825,142 184.860681,142 Z M263.683125,153.988192 C263.647966,153.906463 263.630498,153.865941 263.69086,154.015359 C263.687991,154.005167 263.685409,153.996107 263.683125,153.988192 Z M136.212383,227.216 C141.182946,227.216 145.212383,231.245437 145.212383,236.216 C145.212383,241.186563 141.182946,245.216 136.212383,245.216 L9,245.216 L0,245.216 L0,83.9799401 L101.899443,0.550468346 L208.427517,81.0629932 C212.392925,84.0599969 213.177972,89.704147 210.180968,93.6695553 C207.183965,97.6349635 201.539815,98.4200105 197.574406,95.4230068 L102.344557,23.4495317 L18,92.5060599 L18,227.216 L136.212383,227.216 Z" id="Combined-Shape" fill="url(#linearGradient-1)" fill-rule="nonzero"></path>
    </g>
</svg>